#!OML:ASF F:\VICON\USERDATA\INSTALL\rory3\rory3.ASF
:FULLY-SPECIFIED
:DEGREES
206
root -10.2305 17.9387 12.7044 -1.06197 74.4433 -4.49924
lowerback 11.8264 5.77332 6.0478
upperback 0.646477 8.457 -0.692789
thorax -4.92665 4.0434 -5.37078
lowerneck -20.9199 -5.31934 -11.3922
upperneck 28.9151 -5.25885 6.51118
head 13.8456 -2.50657 3.62812
rclavicle 3.17559e-014 -7.55382e-015
rhumerus -26.162 -4.27392 -80.5563
rradius 32.9465
rwrist 4.16157
rhand -17.9104 9.32082
rfingers 7.12502
rthumb 8.35684 -20.4939
lclavicle 3.17559e-014 -7.55382e-015
lhumerus -40.7611 14.812 71.8104
lradius 28.473
lwrist -9.4761
lhand -13.9331 26.034
lfingers 7.12502
lthumb 12.1936 55.6586
rfemur 7.79747 -15.1852 17.1349
rtibia 21.9962
rfoot -10.0602 -25.8382
rtoes -15.9732
lfemur -22.1478 1.99707 -21.2125
ltibia 18.7225
lfoot -7.81062 3.06945
ltoes 7.36792
207
root -10.098 17.924 12.7028 -0.653666 74.4278 -4.15718
lowerback 11.7383 5.90296 5.9981
upperback 0.612629 8.61221 -0.786788
thorax -4.88622 4.12165 -5.45121
lowerneck -20.963 -5.37793 -11.2711
upperneck 28.8497 -5.40244 6.56187
head 13.8396 -2.54748 3.59894
rclavicle -2.0773e-014 7.55382e-015
rhumerus -26.2504 -4.63872 -80.6544
rradius 33.1897
rwrist 3.87245
rhand -18.0039 9.10617
rfingers 7.12502
rthumb 8.26658 -20.7121
lclavicle -2.0773e-014 7.55382e-015
lhumerus -41.3747 14.8894 71.5886
lradius 28.8011
lwrist -9.85786
lhand -8.68809 24.1424
lfingers 7.12502
lthumb 17.2467 53.3971
rfemur 8.07304 -15.1872 16.7259
rtibia 22.1768
rfoot -9.78649 -25.7165
rtoes -15.6277
lfemur -22.1583 3.05552 -21.8907
ltibia 19.0006
lfoot -6.63267 2.34387
ltoes -1.42628
208
root -9.95909 17.9441 12.703 -0.384332 74.416 -3.85716
lowerback 11.6821 5.99672 5.88217
upperback 0.608051 8.71776 -0.788307
thorax -4.86318 4.17731 -5.3956
lowerneck -20.8952 -5.40199 -11.2476
upperneck 28.7428 -5.45917 6.57921
head 13.7853 -2.56754 3.58854
rclavicle 1.42976e-013 -2.78299e-015
rhumerus -26.4197 -4.80133 -80.6869
rradius 33.4857
rwrist 3.6188
rhand -17.8802 9.08051
rfingers 7.12502
rthumb 8.38598 -20.733
lclavicle 1.42976e-013 -2.78299e-015
lhumerus -41.9851 15.2671 71.3603
lradius 28.9143
lwrist -10.3375
lhand -9.70797 23.4222
lfingers 7.12502
lthumb 16.2648 52.76
rfemur 8.4423 -15.061 16.3298
rtibia 22.3219
rfoot -9.38851 -25.6593
rtoes -15.2032
lfemur -21.7871 2.59269 -21.9037
ltibia 19.2717
lfoot -6.06795 2.71538
ltoes 3.3678
209
root -9.82034 17.9434 12.7003 0.0310826 74.4174 -3.38801
lowerback 11.6719 6.08819 5.7506
upperback 0.568396 8.82 -0.826202
thorax -4.9 4.22748 -5.37811
lowerneck -20.8127 -5.44618 -11.2884
upperneck 28.7446 -5.56269 6.72043
head 13.7868 -2.59758 3.63495
rclavicle 2.0773e-014 0
rhumerus -26.7043 -5.23226 -80.7365
rradius 33.7429
rwrist 3.62192
rhand -17.9673 9.06597
rfingers 7.12502
rthumb 8.30193 -20.7509
lclavicle 2.0773e-014 0
lhumerus -42.2997 15.5285 71.1586
lradius 28.4827
lwrist -10.6205
lhand -15.6329 25.752
lfingers 7.12502
lthumb 10.5543 55.467
rfemur 8.73144 -14.9395 15.8684
rtibia 22.644
rfoot -8.73812 -25.5652
rtoes -15.4699
lfemur -21.4659 2.6866 -22.2057
ltibia 19.3964
lfoot -5.22998 2.96349
ltoes 2.88245
210
root -9.67934 17.9504 12.6943 0.876255 74.4977 -2.45127
lowerback 11.7171 6.11886 5.55042
upperback 0.533491 8.83279 -0.917207
thorax -4.9755 4.23301 -5.37552
lowerneck -20.8818 -5.49427 -11.4161
upperneck 28.8825 -5.63285 6.88616
head 13.8799 -2.61803 3.71573
rclavicle -5.55106e-014 2.10712e-014
rhumerus -26.8984 -5.55514 -80.8581
rradius 33.9025
rwrist 3.46264
rhand -18.3525 8.99528
rfingers 7.12502
rthumb 7.93015 -20.836
lclavicle -5.55106e-014 2.10712e-014
lhumerus -42.5753 15.8727 70.8625
lradius 28.0072
lwrist -10.8615
lhand -18.2283 27.2888
lfingers 7.12502
lthumb 8.05 57.1155
rfemur 8.99645 -14.8974 15.2496
rtibia 23.06
rfoot -7.94875 -25.5026
rtoes -15.5283
lfemur -21.0678 2.54119 -22.5981
ltibia 19.5195
lfoot -4.58831 3.12038
ltoes 4.13711
